<svg width="442" height="133" viewBox="0 0 442 133" fill="none" xmlns="http://www.w3.org/2000/svg">
<path d="M244.848 37.8351C247.396 32.7706 251.763 29.9511 257.794 29.3246V78.0906C251.763 77.464 247.396 74.0181 244.848 68.9013C240.793 74.6446 234.345 78.0906 226.495 78.0906C212.976 78.0906 203.618 67.9615 203.618 53.3421C203.618 38.8272 212.976 28.698 226.495 28.698C234.345 28.698 240.793 32.144 244.848 37.8351ZM231.278 65.5597C237.621 65.5597 242.196 60.5474 242.196 53.4465C242.196 46.3457 237.621 41.3334 231.278 41.3334C224.935 41.3334 220.359 46.3457 220.359 53.4465C220.359 60.5474 224.935 65.5597 231.278 65.5597Z" fill="url(#paint0_linear_1_1315)"/>
<path d="M190.539 32.2669H197.298C198.65 32.2669 199.378 32.9978 199.378 34.3553V42.2916C199.378 43.6491 198.65 44.38 197.298 44.38H190.539V76.2293C190.539 77.5869 189.811 78.3178 188.459 78.3178H177.021C175.669 78.3178 174.941 77.5869 174.941 76.2293V44.38H168.286C166.934 44.38 166.206 43.6491 166.206 42.2916V34.3553C166.206 32.9978 166.934 32.2669 168.286 32.2669H174.941C174.941 21.5112 180.452 14.5148 190.539 12.4263V32.2669Z" fill="url(#paint1_linear_1_1315)"/>
<path d="M136.608 28.698C150.542 28.698 161.981 37.1564 161.981 52.4023V54.2819C161.981 55.6394 161.253 56.3704 159.901 56.3704H126.418C126.834 62.7403 130.473 66.9172 136.296 66.9172C140.872 66.9172 143.887 64.8287 145.135 62.0093C145.655 60.8606 146.279 60.2341 147.423 60.2341H158.965C160.421 60.2341 161.253 61.1739 160.733 62.6358C157.094 73.0782 148.047 78.0906 136.608 78.0906C120.803 78.0906 109.884 68.6924 109.884 53.4465C109.884 38.4095 121.219 28.698 136.608 28.698ZM126.626 47.9121H145.447C145.135 42.8997 141.6 39.3493 136.088 39.3493C130.317 39.3493 127.51 42.8997 126.626 47.9121Z" fill="url(#paint2_linear_1_1315)"/>
<path d="M89.8296 7.18645L106.231 77.3687C106.543 78.7262 105.796 78.318 104.341 78.318H92.0513C91.144 78.3178 90.1607 76.4193 89.7257 74.5399L80.8869 31.8827L73.088 56.9967C68.4086 72.1382 63.6253 76.6284 56.5543 78.508L41.8924 31.8305L36.9011 55.848C33.7815 71.1983 25.7746 78.508 16 78.508L32.9496 7.18645C33.2616 6.03779 33.9895 5.41124 35.2373 5.41124H45.9478C47.0916 5.41124 47.9235 6.03779 48.2355 7.18645L61.2857 49.7914L74.5438 7.18645C74.8557 6.03779 75.6876 5.41124 76.8315 5.41124H87.542C88.7898 5.41124 89.5177 6.03779 89.8296 7.18645Z" fill="url(#paint3_linear_1_1315)"/>
<path d="M414.562 23.1818C408.842 23.1818 403.123 20.3623 403.123 14.7234C403.123 9.18894 408.842 6.26507 414.562 6.26507C420.177 6.26507 426 9.18894 426 14.7234C426 20.3623 420.177 23.1818 414.562 23.1818ZM421.009 78.3176H409.57C408.219 78.3176 407.491 77.5866 407.491 76.2291V31.2224C417.577 33.3109 423.088 40.3073 423.088 51.063V76.2291C423.088 77.5866 422.361 78.3176 421.009 78.3176Z" fill="url(#paint4_linear_1_1315)"/>
<path d="M380.969 31.2228C393.24 31.2228 398.231 39.6811 398.231 52.212V76.2295C398.231 77.587 397.503 78.318 396.151 78.318H384.713C383.361 78.318 382.633 77.587 382.633 76.2295V52.212C382.633 46.7819 380.553 43.8581 375.666 43.8581C370.779 43.8581 366.931 49.0793 366.931 55.3447V76.2295C366.931 77.587 366.203 78.318 364.852 78.318H353.413C352.061 78.318 351.334 77.587 351.334 76.2295V0C361.42 2.08848 366.931 9.08489 366.931 19.8406V37.8537C370.051 33.9378 374.938 31.2228 380.969 31.2228Z" fill="url(#paint5_linear_1_1315)"/>
<path d="M296.101 15.7662C295.08 15.8687 292.935 16.2937 291.651 16.6454C287.74 17.7444 284.238 19.752 281.276 22.5948C278.824 24.9394 277.379 26.8151 275.979 29.4528C273.658 33.8489 272.608 38.5528 272.608 44.6048C272.608 49.968 273.381 54.2762 275.103 58.6431C278.693 67.6844 286.689 74.264 296.641 76.3302C297.823 76.5793 300.946 77.0628 301.384 77.0628C301.442 77.0628 301.5 82.895 301.5 90.0314V103H308.359V90.0314C308.359 82.5433 308.417 77.0628 308.49 77.0628C308.563 77.0628 309.555 76.931 310.708 76.7844C322.221 75.2311 329.809 69.9851 334.683 60.2257C337.222 55.1555 338.273 50.5689 338.273 44.6048C338.273 33.9808 334.581 25.8187 327.124 20.0011C324.22 17.7298 321.229 16.367 317.902 15.7955C316.501 15.561 312.824 15.6929 311.569 16.0299C309.278 16.6454 307.396 17.8177 305.513 19.7813C303.748 21.6277 302.77 23.4008 302.288 25.6721C301.588 28.8959 301.603 28.5149 301.515 51.5946L301.427 73.3994L299.676 72.7986C297.663 72.1099 296.043 71.3186 294.496 70.2781C292.964 69.2524 290.367 66.5854 289.243 64.9002C285.945 59.9472 284.282 53.0453 284.282 44.3263C284.282 31.2992 287.813 22.8732 294.73 19.3417C295.357 19.0193 296.379 18.5943 296.977 18.3892L298.071 18.0229L298.159 15.6636L297.385 15.6929C296.962 15.6929 296.379 15.7369 296.101 15.7662ZM315.991 23.3715C318.106 23.9137 320.105 25.2765 321.754 27.2987C325.067 31.3431 326.964 36.1789 327.796 42.6265C328.044 44.5901 328.044 50.8619 327.796 52.7376C326.789 60.3722 324.075 65.6183 319.347 69.1059C316.837 70.9669 312.824 72.6227 309.453 73.1796C309.132 73.2236 308.753 73.2968 308.621 73.3408C308.373 73.4141 308.359 72.4176 308.359 53.7341C308.373 33.7756 308.461 29.1744 308.855 27.6357C309.366 25.7161 310.475 24.2507 311.934 23.562C312.663 23.2103 312.999 23.137 313.962 23.137C314.59 23.137 315.509 23.2396 315.991 23.3715Z" fill="url(#paint6_linear_1_1315)"/>
<path d="M296.101 17.6648C295.08 17.7674 292.935 18.1923 291.651 18.544C287.74 19.643 284.238 21.6506 281.276 24.4934C278.824 26.838 277.379 28.7137 275.979 31.3514C273.658 35.7475 272.608 40.4514 272.608 46.5034C272.608 51.8667 273.381 56.1749 275.103 60.5417C278.693 69.5831 286.689 76.1626 296.641 78.2288C297.823 78.4779 300.946 78.9615 301.384 78.9615C301.442 78.9615 301.5 84.7936 301.5 91.93V103H308.359V91.93C308.359 84.442 308.417 78.9615 308.49 78.9615C308.563 78.9615 309.555 78.8296 310.708 78.683C322.221 77.1297 329.809 71.8837 334.683 62.1243C337.222 57.0541 338.273 52.4675 338.273 46.5034C338.273 35.8794 334.581 27.7173 327.124 21.8997C324.22 19.6284 321.229 18.2656 317.902 17.6941C316.501 17.4596 312.824 17.5915 311.569 17.9286C309.278 18.544 307.396 19.7163 305.513 21.6799C303.748 23.5263 302.77 25.2994 302.288 27.5707C301.588 30.7946 301.603 30.4136 301.515 53.4932L301.427 75.298L299.676 74.6972C297.663 74.0085 296.043 73.2172 294.496 72.1768C292.964 71.151 290.367 68.484 289.243 66.7988C285.945 61.8459 284.282 54.944 284.282 46.225C284.282 33.1978 287.813 24.7719 294.73 21.2403C295.357 20.9179 296.379 20.493 296.977 20.2878L298.071 19.9215L298.159 17.5622L297.385 17.5915C296.962 17.5915 296.379 17.6355 296.101 17.6648ZM315.991 25.2701C318.106 25.8123 320.105 27.1751 321.754 29.1973C325.067 33.2417 326.964 38.0775 327.796 44.5251C328.044 46.4887 328.044 52.7605 327.796 54.6362C326.789 62.2708 324.075 67.5169 319.347 71.0045C316.837 72.8655 312.824 74.5214 309.453 75.0782C309.132 75.1222 308.753 75.1954 308.621 75.2394C308.373 75.3127 308.359 74.3162 308.359 55.6327C308.373 35.6743 308.461 31.073 308.855 29.5343C309.366 27.6147 310.475 26.1493 311.934 25.4606C312.663 25.1089 312.999 25.0356 313.962 25.0356C314.59 25.0356 315.509 25.1382 315.991 25.2701Z" fill="url(#paint7_linear_1_1315)"/>
<path d="M96.9366 113.455H99.4295L102.143 120.067H102.306L107.185 113.455H109.678L102.938 122.29L101.986 128H99.7988L100.743 122.29L96.9366 113.455ZM112.013 128.22C110.976 128.22 110.11 127.983 109.414 127.51C108.718 127.032 108.227 126.364 107.943 125.507C107.664 124.645 107.617 123.644 107.801 122.503C107.981 121.385 108.343 120.41 108.888 119.577C109.437 118.743 110.124 118.097 110.948 117.638C111.776 117.179 112.697 116.949 113.71 116.949C114.747 116.949 115.611 117.188 116.303 117.666C116.999 118.144 117.489 118.814 117.773 119.676C118.057 120.538 118.107 121.542 117.922 122.688C117.742 123.795 117.375 124.766 116.821 125.599C116.272 126.428 115.585 127.072 114.762 127.531C113.938 127.991 113.021 128.22 112.013 128.22ZM112.134 126.438C112.816 126.438 113.41 126.258 113.916 125.898C114.428 125.538 114.844 125.06 115.166 124.463C115.488 123.866 115.709 123.213 115.827 122.503C115.936 121.816 115.933 121.189 115.82 120.621C115.711 120.048 115.474 119.589 115.11 119.243C114.745 118.897 114.238 118.724 113.59 118.724C112.908 118.724 112.309 118.907 111.793 119.271C111.281 119.631 110.865 120.112 110.543 120.713C110.226 121.314 110.01 121.97 109.896 122.68C109.788 123.362 109.788 123.99 109.896 124.562C110.005 125.131 110.242 125.585 110.607 125.926C110.971 126.267 111.48 126.438 112.134 126.438ZM127.082 123.476L128.148 117.091H130.278L128.46 128H126.372L126.692 126.111H126.578C126.237 126.693 125.754 127.179 125.129 127.567C124.509 127.95 123.789 128.142 122.97 128.142C122.269 128.142 121.675 127.988 121.187 127.68C120.704 127.368 120.361 126.906 120.157 126.295C119.954 125.685 119.925 124.929 120.072 124.03L121.237 117.091H123.361L122.246 123.774C122.127 124.518 122.238 125.109 122.579 125.55C122.92 125.99 123.417 126.21 124.071 126.21C124.469 126.21 124.881 126.111 125.307 125.912C125.733 125.713 126.109 125.412 126.436 125.01C126.767 124.607 126.983 124.096 127.082 123.476ZM131.313 128L133.132 117.091H135.184L134.893 118.824H135.007C135.3 118.237 135.729 117.775 136.292 117.439C136.856 117.098 137.457 116.928 138.096 116.928C138.233 116.928 138.39 116.932 138.565 116.942C138.74 116.946 138.882 116.958 138.991 116.977L138.65 119.009C138.57 118.985 138.423 118.959 138.21 118.93C137.997 118.897 137.776 118.881 137.549 118.881C137.052 118.881 136.59 118.987 136.164 119.2C135.738 119.409 135.381 119.7 135.092 120.074C134.803 120.443 134.616 120.865 134.531 121.338L133.437 128H131.313ZM148.178 113.455L150.273 125.301H150.436L156.438 113.455H158.81L151.161 128H148.625L145.806 113.455H148.178ZM158.325 128L160.143 117.091H162.267L160.449 128H158.325ZM161.649 115.386C161.28 115.386 160.967 115.263 160.711 115.017C160.461 114.766 160.345 114.468 160.363 114.122C160.382 113.772 160.529 113.473 160.804 113.227C161.078 112.976 161.398 112.851 161.763 112.851C162.132 112.851 162.442 112.976 162.693 113.227C162.944 113.473 163.062 113.772 163.048 114.122C163.029 114.468 162.882 114.766 162.608 115.017C162.338 115.263 162.018 115.386 161.649 115.386ZM172.858 119.754L170.877 120.095C170.834 119.844 170.746 119.607 170.614 119.385C170.486 119.162 170.289 118.982 170.024 118.845C169.759 118.703 169.406 118.632 168.966 118.632C168.355 118.632 167.82 118.772 167.361 119.051C166.906 119.33 166.646 119.686 166.58 120.116C166.518 120.467 166.601 120.751 166.828 120.969C167.056 121.182 167.456 121.359 168.029 121.501L169.705 121.899C170.671 122.131 171.362 122.493 171.779 122.986C172.2 123.473 172.347 124.108 172.219 124.889C172.11 125.538 171.826 126.113 171.367 126.615C170.912 127.117 170.33 127.51 169.619 127.794C168.909 128.078 168.119 128.22 167.247 128.22C166.007 128.22 165.041 127.957 164.35 127.432C163.658 126.906 163.303 126.163 163.284 125.202L165.387 124.889C165.424 125.424 165.616 125.829 165.962 126.104C166.312 126.374 166.798 126.509 167.418 126.509C168.128 126.513 168.722 126.364 169.2 126.061C169.679 125.758 169.951 125.391 170.017 124.96C170.074 124.624 169.998 124.345 169.79 124.122C169.586 123.9 169.227 123.729 168.71 123.611L166.949 123.206C165.964 122.974 165.268 122.6 164.861 122.084C164.454 121.568 164.316 120.919 164.449 120.138C164.553 119.499 164.823 118.942 165.259 118.469C165.699 117.991 166.255 117.619 166.928 117.354C167.6 117.084 168.343 116.949 169.158 116.949C170.346 116.949 171.239 117.205 171.835 117.716C172.432 118.223 172.773 118.902 172.858 119.754ZM174.028 128L175.846 117.091H177.97L176.152 128H174.028ZM177.352 115.386C176.983 115.386 176.67 115.263 176.415 115.017C176.164 114.766 176.048 114.468 176.067 114.122C176.086 113.772 176.232 113.473 176.507 113.227C176.782 112.976 177.101 112.851 177.466 112.851C177.835 112.851 178.145 112.976 178.396 113.227C178.647 113.473 178.765 113.772 178.751 114.122C178.732 114.468 178.586 114.766 178.311 115.017C178.041 115.263 177.721 115.386 177.352 115.386ZM183.654 128.22C182.617 128.22 181.75 127.983 181.054 127.51C180.358 127.032 179.868 126.364 179.584 125.507C179.305 124.645 179.257 123.644 179.442 122.503C179.622 121.385 179.984 120.41 180.529 119.577C181.078 118.743 181.764 118.097 182.588 117.638C183.417 117.179 184.338 116.949 185.351 116.949C186.388 116.949 187.252 117.188 187.943 117.666C188.639 118.144 189.129 118.814 189.414 119.676C189.698 120.538 189.747 121.542 189.563 122.688C189.383 123.795 189.016 124.766 188.462 125.599C187.913 126.428 187.226 127.072 186.402 127.531C185.578 127.991 184.662 128.22 183.654 128.22ZM183.774 126.438C184.456 126.438 185.05 126.258 185.557 125.898C186.068 125.538 186.485 125.06 186.807 124.463C187.129 123.866 187.349 123.213 187.468 122.503C187.576 121.816 187.574 121.189 187.46 120.621C187.352 120.048 187.115 119.589 186.75 119.243C186.386 118.897 185.879 118.724 185.23 118.724C184.548 118.724 183.95 118.907 183.433 119.271C182.922 119.631 182.505 120.112 182.183 120.713C181.866 121.314 181.651 121.97 181.537 122.68C181.428 123.362 181.428 123.99 181.537 124.562C181.646 125.131 181.883 125.585 182.247 125.926C182.612 126.267 183.121 126.438 183.774 126.438ZM194.256 121.523L193.19 128H191.067L192.885 117.091H194.923L194.625 118.866H194.76C195.105 118.284 195.577 117.82 196.173 117.474C196.774 117.124 197.485 116.949 198.304 116.949C199.042 116.949 199.663 117.105 200.165 117.418C200.671 117.725 201.029 118.185 201.237 118.795C201.45 119.406 201.483 120.161 201.336 121.061L200.172 128H198.048L199.163 121.317C199.291 120.526 199.187 119.908 198.851 119.463C198.519 119.013 197.991 118.788 197.267 118.788C196.774 118.788 196.318 118.895 195.896 119.108C195.479 119.321 195.127 119.634 194.838 120.045C194.554 120.453 194.36 120.945 194.256 121.523ZM206.116 126.011L205.868 126.786C205.702 127.354 205.484 127.946 205.214 128.561C204.949 129.177 204.684 129.75 204.419 130.28C204.154 130.815 203.943 131.239 203.787 131.551H202.281C202.385 131.258 202.53 130.862 202.714 130.365C202.904 129.868 203.103 129.312 203.311 128.696C203.519 128.08 203.702 127.451 203.858 126.807L204.071 126.011H206.116ZM227.824 120.869C227.569 122.399 227.072 123.71 226.333 124.804C225.599 125.898 224.699 126.738 223.634 127.325C222.573 127.908 221.428 128.199 220.197 128.199C218.913 128.199 217.817 127.893 216.908 127.283C216.004 126.667 215.355 125.794 214.962 124.662C214.569 123.526 214.503 122.171 214.763 120.599C215.019 119.07 215.514 117.759 216.248 116.665C216.986 115.566 217.888 114.723 218.954 114.136C220.024 113.549 221.179 113.256 222.42 113.256C223.693 113.256 224.78 113.563 225.68 114.179C226.584 114.79 227.233 115.666 227.626 116.807C228.019 117.943 228.085 119.297 227.824 120.869ZM225.687 120.599C225.881 119.439 225.857 118.464 225.616 117.673C225.379 116.878 224.974 116.277 224.401 115.869C223.828 115.462 223.137 115.259 222.327 115.259C221.465 115.259 220.658 115.476 219.905 115.912C219.157 116.348 218.518 116.982 217.988 117.815C217.457 118.649 217.095 119.667 216.901 120.869C216.702 122.029 216.724 123.005 216.965 123.795C217.206 124.586 217.614 125.185 218.187 125.592C218.764 125.995 219.458 126.196 220.268 126.196C221.125 126.196 221.927 125.981 222.675 125.55C223.428 125.114 224.07 124.482 224.6 123.653C225.13 122.82 225.492 121.802 225.687 120.599ZM236.867 123.476L237.933 117.091H240.063L238.245 128H236.157L236.477 126.111H236.363C236.022 126.693 235.539 127.179 234.914 127.567C234.294 127.95 233.574 128.142 232.755 128.142C232.054 128.142 231.46 127.988 230.972 127.68C230.49 127.368 230.146 126.906 229.943 126.295C229.739 125.685 229.711 124.929 229.857 124.03L231.022 117.091H233.146L232.031 123.774C231.912 124.518 232.024 125.109 232.365 125.55C232.705 125.99 233.203 126.21 233.856 126.21C234.254 126.21 234.666 126.111 235.092 125.912C235.518 125.713 235.894 125.412 236.221 125.01C236.552 124.607 236.768 124.096 236.867 123.476ZM241.099 128L242.917 117.091H244.969L244.678 118.824H244.792C245.085 118.237 245.514 117.775 246.077 117.439C246.641 117.098 247.242 116.928 247.881 116.928C248.019 116.928 248.175 116.932 248.35 116.942C248.525 116.946 248.667 116.958 248.776 116.977L248.435 119.009C248.355 118.985 248.208 118.959 247.995 118.93C247.782 118.897 247.562 118.881 247.334 118.881C246.837 118.881 246.376 118.987 245.949 119.2C245.523 119.409 245.166 119.7 244.877 120.074C244.588 120.443 244.401 120.865 244.316 121.338L243.222 128H241.099ZM255.506 128H253.176L260.825 113.455H263.361L266.18 128H263.851L261.727 116.097H261.613L255.506 128ZM256.841 122.304H264.398L264.085 124.151H256.528L256.841 122.304ZM272.649 113.455L270.234 128H268.11L270.525 113.455H272.649ZM276.983 132.318C276.112 132.318 275.382 132.205 274.795 131.977C274.213 131.75 273.754 131.449 273.417 131.075C273.086 130.701 272.856 130.292 272.729 129.847L274.689 129.094C274.783 129.302 274.916 129.522 275.086 129.754C275.257 129.991 275.51 130.192 275.846 130.358C276.187 130.524 276.654 130.607 277.246 130.607C278.05 130.607 278.754 130.41 279.355 130.017C279.956 129.629 280.328 129.009 280.47 128.156L280.804 126.011H280.669C280.508 126.243 280.285 126.501 280.001 126.786C279.717 127.07 279.35 127.316 278.9 127.524C278.451 127.732 277.892 127.837 277.224 127.837C276.363 127.837 275.619 127.635 274.994 127.233C274.374 126.826 273.929 126.227 273.659 125.436C273.389 124.641 273.351 123.663 273.545 122.503C273.735 121.343 274.095 120.348 274.625 119.52C275.16 118.691 275.809 118.057 276.571 117.616C277.338 117.171 278.159 116.949 279.035 116.949C279.712 116.949 280.24 117.062 280.619 117.29C281.003 117.512 281.287 117.773 281.471 118.071C281.656 118.369 281.791 118.632 281.876 118.859H282.032L282.324 117.091H284.405L282.558 128.241C282.407 129.179 282.063 129.948 281.528 130.55C280.998 131.151 280.337 131.596 279.547 131.885C278.761 132.174 277.906 132.318 276.983 132.318ZM277.949 126.075C278.555 126.075 279.095 125.933 279.568 125.649C280.046 125.36 280.444 124.948 280.761 124.413C281.078 123.874 281.299 123.227 281.422 122.474C281.545 121.741 281.538 121.094 281.4 120.536C281.268 119.977 281.01 119.541 280.626 119.229C280.247 118.911 279.753 118.753 279.142 118.753C278.498 118.753 277.939 118.919 277.466 119.25C276.992 119.577 276.606 120.022 276.308 120.585C276.015 121.149 275.809 121.778 275.69 122.474C275.577 123.189 275.579 123.817 275.697 124.357C275.82 124.896 276.067 125.318 276.436 125.621C276.805 125.924 277.309 126.075 277.949 126.075ZM290.079 128.22C289.042 128.22 288.176 127.983 287.48 127.51C286.784 127.032 286.294 126.364 286.01 125.507C285.73 124.645 285.683 123.644 285.868 122.503C286.048 121.385 286.41 120.41 286.954 119.577C287.504 118.743 288.19 118.097 289.014 117.638C289.843 117.179 290.764 116.949 291.777 116.949C292.814 116.949 293.678 117.188 294.369 117.666C295.065 118.144 295.555 118.814 295.839 119.676C296.123 120.538 296.173 121.542 295.988 122.688C295.809 123.795 295.442 124.766 294.888 125.599C294.338 126.428 293.652 127.072 292.828 127.531C292.004 127.991 291.088 128.22 290.079 128.22ZM290.2 126.438C290.882 126.438 291.476 126.258 291.983 125.898C292.494 125.538 292.911 125.06 293.233 124.463C293.555 123.866 293.775 123.213 293.893 122.503C294.002 121.816 294 121.189 293.886 120.621C293.777 120.048 293.541 119.589 293.176 119.243C292.811 118.897 292.305 118.724 291.656 118.724C290.974 118.724 290.375 118.907 289.859 119.271C289.348 119.631 288.931 120.112 288.609 120.713C288.292 121.314 288.077 121.97 287.963 122.68C287.854 123.362 287.854 123.99 287.963 124.562C288.072 125.131 288.309 125.585 288.673 125.926C289.038 126.267 289.547 126.438 290.2 126.438ZM297.485 128L299.303 117.091H301.356L301.065 118.824H301.178C301.472 118.237 301.901 117.775 302.464 117.439C303.027 117.098 303.629 116.928 304.268 116.928C304.405 116.928 304.561 116.932 304.737 116.942C304.912 116.946 305.054 116.958 305.163 116.977L304.822 119.009C304.741 118.985 304.595 118.959 304.382 118.93C304.169 118.897 303.948 118.881 303.721 118.881C303.224 118.881 302.762 118.987 302.336 119.2C301.91 119.409 301.552 119.7 301.264 120.074C300.975 120.443 300.788 120.865 300.703 121.338L299.609 128H297.485ZM305.2 128L307.018 117.091H309.142L307.324 128H305.2ZM308.524 115.386C308.155 115.386 307.842 115.263 307.586 115.017C307.336 114.766 307.22 114.468 307.238 114.122C307.257 113.772 307.404 113.473 307.679 113.227C307.953 112.976 308.273 112.851 308.638 112.851C309.007 112.851 309.317 112.976 309.568 113.227C309.819 113.473 309.937 113.772 309.923 114.122C309.904 114.468 309.757 114.766 309.483 115.017C309.213 115.263 308.893 115.386 308.524 115.386ZM317.091 117.091L316.814 118.795H310.855L311.132 117.091H317.091ZM313.156 114.477H315.28L313.561 124.797C313.495 125.209 313.507 125.519 313.597 125.727C313.687 125.931 313.824 126.071 314.009 126.146C314.198 126.217 314.409 126.253 314.641 126.253C314.811 126.253 314.96 126.241 315.088 126.217C315.216 126.194 315.318 126.175 315.394 126.161L315.507 127.915C315.365 127.962 315.173 128.009 314.932 128.057C314.695 128.109 314.406 128.137 314.066 128.142C313.507 128.152 313.003 128.052 312.553 127.844C312.103 127.631 311.767 127.309 311.544 126.878C311.322 126.442 311.267 125.895 311.381 125.237L313.156 114.477ZM321.052 121.523L319.987 128H317.863L320.278 113.455H322.373L321.479 118.866H321.613C321.959 118.275 322.423 117.808 323.006 117.467C323.593 117.122 324.312 116.949 325.165 116.949C325.913 116.949 326.54 117.103 327.047 117.411C327.558 117.718 327.918 118.178 328.126 118.788C328.339 119.394 328.372 120.152 328.226 121.061L327.061 128H324.937L326.045 121.317C326.178 120.517 326.074 119.896 325.733 119.456C325.392 119.011 324.859 118.788 324.135 118.788C323.628 118.788 323.159 118.895 322.729 119.108C322.302 119.321 321.943 119.634 321.649 120.045C321.355 120.453 321.157 120.945 321.052 121.523ZM329.895 128L331.713 117.091H333.751L333.453 118.866H333.588C333.919 118.265 334.369 117.796 334.937 117.46C335.51 117.119 336.159 116.949 336.883 116.949C337.603 116.949 338.183 117.119 338.623 117.46C339.068 117.801 339.36 118.27 339.497 118.866H339.611C339.961 118.279 340.451 117.813 341.081 117.467C341.711 117.122 342.418 116.949 343.204 116.949C344.184 116.949 344.937 117.261 345.463 117.886C345.993 118.507 346.154 119.439 345.946 120.685L344.724 128H342.594L343.787 120.884C343.905 120.14 343.791 119.605 343.446 119.278C343.1 118.947 342.648 118.781 342.089 118.781C341.398 118.781 340.825 118.994 340.371 119.42C339.916 119.842 339.637 120.384 339.532 121.047L338.361 128H336.251L337.466 120.749C337.56 120.152 337.452 119.676 337.139 119.321C336.831 118.961 336.381 118.781 335.79 118.781C335.387 118.781 334.997 118.888 334.618 119.101C334.244 119.314 333.924 119.607 333.659 119.982C333.394 120.356 333.221 120.786 333.14 121.274L332.018 128H329.895Z" fill="#32384C"/>
<defs>
<linearGradient id="paint0_linear_1_1315" x1="40.0588" y1="12.341" x2="267.388" y2="203.107" gradientUnits="userSpaceOnUse">
<stop offset="0.132311" stop-color="#07B9CE"/>
<stop offset="0.5" stop-color="#3969E7"/>
<stop offset="1" stop-color="#7D2AE7"/>
</linearGradient>
<linearGradient id="paint1_linear_1_1315" x1="40.0588" y1="12.341" x2="267.388" y2="203.107" gradientUnits="userSpaceOnUse">
<stop offset="0.132311" stop-color="#07B9CE"/>
<stop offset="0.5" stop-color="#3969E7"/>
<stop offset="1" stop-color="#7D2AE7"/>
</linearGradient>
<linearGradient id="paint2_linear_1_1315" x1="40.0588" y1="12.341" x2="267.388" y2="203.107" gradientUnits="userSpaceOnUse">
<stop offset="0.132311" stop-color="#07B9CE"/>
<stop offset="0.5" stop-color="#3969E7"/>
<stop offset="1" stop-color="#7D2AE7"/>
</linearGradient>
<linearGradient id="paint3_linear_1_1315" x1="40.0588" y1="12.341" x2="267.388" y2="203.107" gradientUnits="userSpaceOnUse">
<stop offset="0.132311" stop-color="#07B9CE"/>
<stop offset="0.5" stop-color="#3969E7"/>
<stop offset="1" stop-color="#7D2AE7"/>
</linearGradient>
<linearGradient id="paint4_linear_1_1315" x1="40.0588" y1="12.341" x2="267.388" y2="203.107" gradientUnits="userSpaceOnUse">
<stop offset="0.132311" stop-color="#07B9CE"/>
<stop offset="0.5" stop-color="#3969E7"/>
<stop offset="1" stop-color="#7D2AE7"/>
</linearGradient>
<linearGradient id="paint5_linear_1_1315" x1="40.0588" y1="12.341" x2="267.388" y2="203.107" gradientUnits="userSpaceOnUse">
<stop offset="0.132311" stop-color="#07B9CE"/>
<stop offset="0.5" stop-color="#3969E7"/>
<stop offset="1" stop-color="#7D2AE7"/>
</linearGradient>
<linearGradient id="paint6_linear_1_1315" x1="40.0588" y1="12.341" x2="267.388" y2="203.107" gradientUnits="userSpaceOnUse">
<stop offset="0.132311" stop-color="#07B9CE"/>
<stop offset="0.5" stop-color="#3969E7"/>
<stop offset="1" stop-color="#7D2AE7"/>
</linearGradient>
<linearGradient id="paint7_linear_1_1315" x1="40.0588" y1="12.341" x2="267.388" y2="203.107" gradientUnits="userSpaceOnUse">
<stop offset="0.132311" stop-color="#07B9CE"/>
<stop offset="0.5" stop-color="#3969E7"/>
<stop offset="1" stop-color="#7D2AE7"/>
</linearGradient>
</defs>
</svg>
